<svg width="1047" height="237" viewBox="0 0 1047 237" fill="none" xmlns="http://www.w3.org/2000/svg">
<path d="M280.014 76.7335H316.518C356.469 76.7335 372.892 92.1491 372.892 113.238C372.892 134.327 356.469 149.742 316.518 149.742H280.014V76.7467V76.7335ZM315.709 134.419C340.549 134.419 351.1 127.116 351.1 113.225C351.1 99.3333 340.549 91.937 315.709 91.937H300.201V134.419H315.709Z" fill="#FFFFFF"/>
<path d="M376.431 147.9L408.972 76.7201H443.237L476.387 147.9V149.729H454.795L447.704 133.2H403.697L396.499 149.729H376.418V147.9H376.431ZM441.222 118.301L430.074 92.3477H421.657L410.298 118.301H441.222Z" fill="#FFFFFF"/>
<path d="M486.435 76.7335H535.611C559.536 76.7335 570.485 84.8455 570.485 99.1345C570.485 111.104 561.458 118.699 544.836 120.939L570.79 148.006V149.729H547.262L523.032 121.642H506.41V149.729H486.435V76.7335ZM535.505 107.048C545.141 107.048 549.396 104.304 549.396 99.4393C549.396 94.5747 545.141 91.937 535.505 91.937H506.41V107.048H535.505Z" fill="#FFFFFF"/>
<path d="M620.668 119.415H604.854V149.729H584.574V76.7335H604.854V103.403H620.668L651.393 76.7335H675.013V78.2578L637.396 110.096L675.623 148.125V149.742H650.677L620.668 119.428V119.415Z" fill="#FFFFFF"/>
<path d="M682.303 142.942V126.108H684.133C695.081 132.192 710.696 136.142 723.566 136.142C735.324 136.142 742.123 133.81 742.123 129.356C742.123 126.413 739.38 124.385 728.643 122.662L711.2 119.719C690.005 116.273 681.893 109.168 681.893 98.127C681.893 83.8248 696.5 74.9042 721.128 74.9042C734.409 74.9042 748.91 77.9396 759.143 82.5126V99.0416H757.314C746.763 93.6733 732.063 90.227 720.412 90.227C708.761 90.227 702.663 92.255 702.663 96.5099C702.663 99.6513 705.301 101.481 715.03 103.098L732.779 106.04C755.485 109.593 762.987 116.684 762.987 127.54C762.987 142.24 748.486 151.571 722.639 151.571C708.442 151.571 692.629 148.125 682.29 142.956L682.303 142.942Z" fill="#FFFFFF"/>
<path d="M800.831 92.4405H769.099V76.7201H852.844V92.4405H821.111V149.623L800.831 149.729V92.4405Z" fill="#FFFFFF"/>
<path d="M849.276 147.9L881.817 76.7201H916.081L949.232 147.9V149.729H927.64L920.548 133.2H876.542L869.344 149.729H849.263V147.9H849.276ZM914.067 118.301L902.919 92.3477H894.502L883.143 118.301H914.067Z" fill="#FFFFFF"/>
<path d="M952.189 148.204L985.645 112.615V111.806L952.892 78.1384V76.7201H978.143L1000.04 101.056H1001.05L1022.24 76.7201H1045.97V78.1384L1012.91 112.814V113.728L1046.87 148.204V149.729H1021.62L998.396 124.385H997.376L975.876 149.729H952.149V148.204H952.189Z" fill="#FFFFFF"/>
<path d="M99.5718 9.09293C98.5644 8.11206 97.9812 6.72028 97.9812 5.27548C97.9812 3.83068 98.5777 2.43892 99.5983 1.44479C100.513 0.530197 101.891 0 103.376 0C104.861 0 106.252 0.543437 107.193 1.47129C108.201 2.45216 108.784 3.84393 108.784 5.27548C108.784 6.70702 108.188 8.12534 107.167 9.11947C106.226 10.1003 104.834 10.6703 103.389 10.6703C101.944 10.6703 100.553 10.0871 99.5586 9.09293H99.5718ZM38.0685 48.4074C39.0096 48.4074 39.9242 48.1555 40.7857 47.6784C43.344 46.1938 44.2321 42.88 42.7475 40.2953C41.2497 37.7371 37.9359 36.8622 35.3909 38.3335C34.1317 39.0493 33.2304 40.229 32.8592 41.6341C32.4881 43.0391 32.6869 44.4839 33.4027 45.7033C34.3571 47.3735 36.1465 48.4206 38.0685 48.4206V48.4074ZM70.7289 29.5454C71.6965 29.5454 72.6111 29.3069 73.4594 28.8164C76.0176 27.3186 76.8925 24.0049 75.4211 21.4599C74.7054 20.2007 73.5257 19.2993 72.1206 18.9282C70.7156 18.557 69.2708 18.7559 68.0513 19.4716C66.7921 20.1874 65.8908 21.3539 65.5196 22.7456C65.1485 24.1374 65.3341 25.5955 66.0631 26.8414C67.0175 28.4983 68.8069 29.5322 70.7289 29.5322V29.5454ZM10.3654 59.7934C10.2329 59.4488 10.0606 59.1307 9.875 58.8656C9.63641 58.521 9.38456 58.2294 9.19899 58.0703C9.00017 57.8715 8.72181 57.5931 8.29765 57.328C8.0193 57.1557 7.72768 56.9967 7.31678 56.8376C7.01191 56.7316 6.7203 56.6388 6.44195 56.5857C4.66577 56.2544 2.84983 56.7978 1.5906 58.057C1.37852 58.2691 1.1797 58.5077 0.848323 58.9584C0.689262 59.2102 0.569967 59.4621 0.397651 59.8332C0.291611 60.0983 0.212081 60.3767 0.0927855 60.8406C0.0397653 61.172 0 61.5299 0 61.8612C0 63.2928 0.569967 64.6846 1.57735 65.6787C2.58473 66.6728 3.97651 67.256 5.3948 67.256C5.72618 67.256 6.07081 67.2295 6.41544 67.1632C6.73356 67.1102 7.03842 67.0042 7.42282 66.8716C7.71443 66.7656 8.00604 66.5933 8.31091 66.4077C8.72181 66.1559 9.00017 65.8775 9.17248 65.7052C10.2064 64.7111 10.7896 63.306 10.7896 61.8612C10.7896 61.4371 10.7366 61.0394 10.6836 60.8406C10.6173 60.443 10.5112 60.0983 10.3654 59.7802V59.7934ZM5.40805 94.2035C2.42567 94.2035 0.0132553 96.6292 0.0132553 99.5983C0.0132553 102.567 2.43893 104.993 5.40805 104.993C8.37718 104.993 10.8029 102.567 10.8029 99.5983C10.8029 96.6292 8.37718 94.2035 5.40805 94.2035ZM5.40805 131.914C2.42567 131.914 0.0132553 134.34 0.0132553 137.309C0.0132553 140.278 2.43893 142.704 5.40805 142.704C8.37718 142.704 10.8029 140.278 10.8029 137.309C10.8029 134.34 8.37718 131.914 5.40805 131.914ZM10.3654 172.938C10.2196 172.594 10.0473 172.276 9.875 172.024C9.63641 171.679 9.38456 171.388 9.19899 171.229C9.00017 171.03 8.72181 170.751 8.29765 170.486C8.00604 170.314 7.71443 170.155 7.51561 170.075C7.17097 169.916 6.79983 169.81 6.46846 169.744C4.73205 169.373 2.84983 169.943 1.57735 171.215C1.36527 171.427 1.16644 171.666 0.848323 172.117C0.702517 172.355 0.583222 172.594 0.371141 173.044C0.278356 173.31 0.198826 173.561 0.0927855 174.012C0.0397653 174.343 0 174.701 0 175.019C0 175.338 0.0265106 175.669 0.132551 176.239C0.212081 176.517 0.291611 176.809 0.437417 177.14C0.583222 177.458 0.729027 177.737 0.927853 178.042C1.13993 178.333 1.33876 178.598 1.57735 178.837C2.58473 179.844 3.97651 180.414 5.3948 180.414C5.72618 180.414 6.07081 180.388 6.41544 180.321C6.73356 180.268 7.03842 180.162 7.43607 180.017C7.71443 179.911 8.00604 179.738 8.4302 179.473C8.72181 179.261 8.9604 179.062 9.17248 178.85C10.1931 177.856 10.7896 176.451 10.7896 175.006C10.7896 174.595 10.7366 174.184 10.6836 173.999C10.6173 173.614 10.5112 173.257 10.3654 172.925V172.938ZM40.7857 189.216H40.7592C38.1878 187.731 34.8873 188.619 33.3762 191.191C31.9181 193.749 32.8062 197.076 35.4175 198.6C36.2525 199.051 37.1671 199.276 38.0685 199.276C39.9772 199.276 41.7799 198.242 42.7607 196.572C44.232 194.014 43.344 190.7 40.799 189.202L40.7857 189.216ZM73.4329 208.078C72.1869 207.362 70.7289 207.163 69.3503 207.534C67.9453 207.905 66.7921 208.807 66.0763 210.039C65.3473 211.285 65.1485 212.743 65.5196 214.148C65.8908 215.54 66.7921 216.707 68.0248 217.409C68.8466 217.9 69.7878 218.151 70.7421 218.151C72.6774 218.151 74.427 217.144 75.4211 215.447C76.9057 212.876 76.0176 209.562 73.4461 208.078H73.4329ZM106.385 227.125L106.305 227.072C105.908 226.833 105.656 226.701 105.576 226.688C105.232 226.515 104.847 226.396 104.476 226.33C102.727 225.972 100.871 226.529 99.5983 227.774C98.5644 228.769 97.9812 230.174 97.9812 231.605C97.9812 233.037 98.5644 234.415 99.5718 235.423C100.566 236.43 101.971 237 103.403 237C103.734 237 104.092 236.973 104.41 236.907C104.755 236.841 105.099 236.722 105.364 236.629C105.722 236.496 106.04 236.311 106.504 236.019C106.743 235.834 106.981 235.648 107.193 235.423C108.201 234.415 108.784 233.01 108.784 231.605C108.784 230.2 108.201 228.782 107.18 227.788C106.928 227.549 106.65 227.297 106.372 227.112L106.385 227.125ZM137.494 207.547C136.103 207.176 134.645 207.348 133.359 208.078C130.787 209.562 129.899 212.863 131.397 215.461C132.378 217.117 134.167 218.151 136.063 218.151C137.017 218.151 137.945 217.899 138.74 217.422C140 216.707 140.901 215.54 141.272 214.135C141.643 212.743 141.444 211.285 140.729 210.052C140.013 208.807 138.873 207.918 137.481 207.534L137.494 207.547ZM166.033 189.202H166.006C164.76 189.945 163.885 191.124 163.514 192.516C163.143 193.908 163.342 195.353 164.058 196.559C164.999 198.242 166.801 199.289 168.737 199.289C169.651 199.289 170.566 199.051 171.467 198.56C174.025 197.049 174.9 193.736 173.402 191.177C171.918 188.619 168.617 187.731 166.033 189.202ZM206.673 173.866L206.739 173.84L206.156 172.289L206.063 172.315C206.01 172.223 205.957 172.13 205.89 172.037C205.705 171.759 205.453 171.467 205.214 171.215C204.234 170.234 202.842 169.678 201.37 169.678C199.926 169.678 198.547 170.248 197.593 171.215C197.301 171.507 197.076 171.772 196.877 172.09C196.691 172.382 196.519 172.687 196.453 172.885C196.294 173.23 196.175 173.601 196.148 173.853C196.055 174.237 196.002 174.595 196.002 175.019C196.002 176.438 196.572 177.816 197.58 178.824C198.56 179.844 199.965 180.414 201.41 180.414C202.855 180.414 204.26 179.831 205.228 178.837C206.235 177.83 206.805 176.438 206.805 175.019C206.805 174.701 206.779 174.343 206.712 173.986L206.686 173.866H206.673ZM201.41 131.914C198.428 131.914 196.015 134.34 196.015 137.309C196.015 140.278 198.441 142.704 201.41 142.704C204.379 142.704 206.792 140.278 206.792 137.309C206.792 134.34 204.379 131.914 201.41 131.914ZM201.41 94.2035C198.428 94.2035 196.015 96.6292 196.015 99.5983C196.015 102.567 198.441 104.993 201.41 104.993C204.379 104.993 206.792 102.567 206.792 99.5983C206.792 96.6292 204.379 94.2035 201.41 94.2035ZM196.426 63.9688C196.546 64.2604 196.705 64.5388 196.904 64.8701C197.076 65.1352 197.301 65.4136 197.566 65.6654C198.547 66.6861 199.952 67.2693 201.397 67.2693C202.842 67.2693 204.247 66.6861 205.214 65.6919C205.453 65.4534 205.705 65.1618 205.943 64.7906C206.129 64.4857 206.301 64.1676 206.394 63.9025C206.513 63.5976 206.633 63.2663 206.699 62.8554C206.752 62.524 206.779 62.2059 206.779 61.8745C206.779 60.4297 206.195 59.0379 205.201 58.0703C204.22 57.0894 202.829 56.5327 201.357 56.5327C199.912 56.5327 198.534 57.1027 197.58 58.0703C197.288 58.3619 197.063 58.627 196.851 58.9584C196.665 59.25 196.506 59.5549 196.44 59.7272C196.281 60.0718 196.161 60.4429 196.121 60.708C196.029 61.0924 195.976 61.4636 195.976 61.8745C195.976 62.2854 196.015 62.6698 196.082 62.9084C196.148 63.306 196.267 63.6507 196.413 63.9688H196.426ZM133.346 28.8164L133.425 28.8562C134.273 29.3069 135.162 29.5454 136.076 29.5454C138.011 29.5454 139.788 28.5116 140.729 26.8679C141.458 25.622 141.657 24.1507 141.285 22.7589C140.914 21.3538 140.013 20.2007 138.78 19.4981C137.547 18.7691 136.103 18.5703 134.711 18.9282C133.306 19.2993 132.126 20.1874 131.397 21.4599C129.913 24.0181 130.787 27.3186 133.346 28.8297V28.8164ZM166.033 47.6784C166.854 48.1555 167.782 48.4206 168.737 48.4206C170.645 48.4206 172.435 47.3867 173.416 45.7166C174.887 43.1716 173.999 39.8579 171.427 38.3335C168.856 36.8622 165.555 37.7503 164.071 40.3086C163.342 41.5545 163.143 43.0126 163.514 44.4176C163.885 45.8094 164.787 46.9626 166.033 47.6916V47.6784ZM103.403 50.3956C105.417 50.3956 107.392 49.5738 108.824 48.1555C110.255 46.724 111.077 44.749 111.077 42.7342C111.077 40.7195 110.255 38.7445 108.824 37.3129C108.479 36.9683 108.082 36.6369 107.591 36.3055C107.18 36.0537 106.73 35.8019 106.372 35.6693C105.828 35.4307 105.298 35.2982 104.9 35.2186C103.906 35.0066 102.899 35.0066 101.865 35.2186C101.467 35.2982 100.95 35.4307 100.5 35.6295C100.049 35.8019 99.5983 36.0537 99.1079 36.3586C98.7102 36.6369 98.3126 36.955 97.9547 37.3262C96.5364 38.771 95.7146 40.746 95.7146 42.7342C95.7146 44.7225 96.5364 46.7107 97.9812 48.1688C99.426 49.5871 101.401 50.4089 103.403 50.4089V50.3956ZM70.6228 69.3371C71.9748 69.3371 73.3003 68.9792 74.4403 68.2899C76.2164 67.2693 77.4889 65.5992 78.0191 63.6242C78.5493 61.6492 78.271 59.5946 77.2503 57.8317C76.2297 56.0423 74.5728 54.7698 72.5846 54.2528C70.6228 53.7226 68.555 53.9877 66.7921 55.0216C65.0159 56.029 63.7435 57.6727 63.2133 59.6477C62.6698 61.6359 62.9349 63.7169 63.9688 65.5064C65.3208 67.879 67.879 69.3503 70.6228 69.3503V69.3371ZM32.382 75.156C30.9505 76.5876 30.1287 78.5626 30.1287 80.5773C30.1287 82.5921 30.9505 84.5671 32.382 85.9987C33.8136 87.4302 35.7886 88.252 37.8034 88.252C39.8181 88.252 41.7931 87.4302 43.2247 85.9987C44.6562 84.5671 45.478 82.5921 45.478 80.5773C45.478 78.5626 44.6562 76.5876 43.2247 75.156C40.3351 72.2664 35.2716 72.2664 32.382 75.156ZM37.8034 110.772C33.575 110.772 30.1287 114.219 30.1287 118.447C30.1287 122.675 33.575 126.122 37.8034 126.122C42.0317 126.122 45.478 122.675 45.478 118.447C45.478 114.219 42.0317 110.772 37.8034 110.772ZM42.098 149.954L42.045 149.914C41.6076 149.636 41.1569 149.397 40.799 149.265C40.2821 149.04 39.7651 148.881 39.3277 148.801C36.8225 148.297 34.1715 149.106 32.4086 150.882C30.977 152.3 30.1419 154.275 30.1419 156.317C30.1419 158.358 30.9638 160.306 32.3953 161.738C33.8269 163.169 35.8018 163.991 37.8166 163.991C39.8314 163.991 41.8064 163.169 43.2379 161.738C44.6695 160.306 45.4913 158.331 45.4913 156.317C45.4913 154.302 44.6827 152.314 43.2909 150.948C42.9596 150.59 42.5619 150.259 42.1112 149.941L42.098 149.954ZM74.427 168.617C72.6508 167.583 70.5831 167.318 68.5948 167.849C66.6198 168.379 64.9762 169.638 63.9555 171.414C62.9349 173.19 62.6565 175.258 63.1867 177.233C63.7169 179.208 64.9894 180.865 66.7656 181.886C67.9321 182.548 69.2443 182.906 70.5831 182.906C73.3401 182.906 75.8851 181.435 77.2238 179.076C78.2577 177.299 78.5228 175.218 77.9926 173.243C77.4624 171.268 76.1899 169.625 74.4138 168.604L74.427 168.617ZM107.644 187.811C107.22 187.519 106.756 187.267 106.372 187.121C105.828 186.883 105.298 186.75 104.9 186.671C103.906 186.459 102.899 186.459 101.865 186.671C101.467 186.75 100.95 186.883 100.5 187.082C100.036 187.267 99.5586 187.519 99.1874 187.771C98.7633 188.036 98.3391 188.381 97.8884 188.818C97.5836 189.149 97.2654 189.507 96.9871 189.931C96.6955 190.382 96.4701 190.819 96.3243 191.177C96.1123 191.668 95.9532 192.171 95.8206 192.808C95.7544 193.272 95.6881 193.709 95.6881 194.16C95.6881 196.148 96.5099 198.136 97.9547 199.594C99.3995 201.013 101.375 201.834 103.376 201.834C105.378 201.834 107.366 201.013 108.797 199.594C110.229 198.163 111.051 196.188 111.051 194.173C111.051 192.158 110.229 190.183 108.797 188.752C108.439 188.394 108.029 188.062 107.618 187.797L107.644 187.811ZM138.17 167.849C136.182 167.318 134.128 167.597 132.365 168.617C130.589 169.625 129.316 171.282 128.773 173.257C128.242 175.245 128.508 177.313 129.528 179.062C130.88 181.435 133.425 182.906 136.182 182.906C137.521 182.906 138.807 182.562 140.026 181.886C143.658 179.778 144.917 175.072 142.836 171.401C141.816 169.638 140.159 168.365 138.17 167.835V167.849ZM176.08 153.427L176.04 153.334C175.841 152.884 175.603 152.433 175.338 152.035C175.126 151.717 174.781 151.253 174.396 150.909C173.999 150.511 173.614 150.193 173.243 149.954C172.819 149.663 172.342 149.411 171.958 149.265C171.441 149.04 170.91 148.881 170.486 148.814C169.492 148.615 168.458 148.602 167.544 148.801C167.027 148.881 166.496 149.04 166.072 149.238C165.608 149.411 165.171 149.649 164.667 149.967C164.256 150.246 163.885 150.564 163.594 150.856C163.196 151.227 162.838 151.664 162.6 152.035C162.295 152.473 162.043 152.95 161.884 153.348C161.645 153.891 161.513 154.408 161.433 154.806C161.327 155.296 161.274 155.813 161.274 156.33C161.274 156.847 161.327 157.364 161.433 157.841C161.552 158.398 161.685 158.862 161.844 159.219C162.03 159.683 162.281 160.174 162.507 160.465C162.759 160.903 163.09 161.314 163.527 161.751C163.885 162.109 164.256 162.414 164.707 162.719C165.118 162.984 165.516 163.196 166.046 163.435C166.483 163.607 166.947 163.753 167.438 163.845C167.955 163.952 168.445 164.005 168.949 164.005C170.963 164.005 172.938 163.183 174.37 161.751C175.802 160.32 176.61 158.345 176.61 156.33C176.61 155.813 176.557 155.296 176.451 154.806C176.358 154.342 176.212 153.878 176.04 153.44L176.08 153.427ZM168.988 110.772C164.76 110.772 161.314 114.219 161.314 118.447C161.314 122.675 164.76 126.122 168.988 126.122C173.217 126.122 176.663 122.675 176.663 118.447C176.663 114.219 173.217 110.772 168.988 110.772ZM167.464 73.0617L167.636 73.9366L167.451 73.075C166.987 73.1678 166.523 73.3136 165.993 73.5257C165.555 73.7245 165.158 73.9366 164.707 74.2282C164.309 74.5066 163.925 74.8114 163.567 75.1693C163.13 75.6067 162.812 76.0044 162.639 76.3092C162.308 76.7732 162.069 77.2371 161.91 77.6348C161.711 78.0854 161.579 78.5493 161.473 79.0795C161.367 79.5567 161.314 80.0869 161.314 80.5906C161.314 81.0943 161.367 81.5847 161.473 82.1149C161.552 82.4728 161.672 83.0163 161.884 83.4802C162.096 84.0236 162.387 84.5008 162.573 84.7792C162.825 85.1901 163.156 85.5878 163.567 85.9987C163.952 86.3831 164.336 86.7012 164.826 87.0326C165.237 87.2712 165.661 87.5097 165.993 87.6423C166.536 87.8941 167.066 88.0134 167.477 88.1062C167.994 88.2123 168.485 88.2653 168.988 88.2653C169.492 88.2653 169.996 88.2123 170.526 88.1062C170.924 88.0267 171.441 87.8941 171.891 87.6953C172.342 87.523 172.779 87.2711 173.217 87.006C173.628 86.7409 174.025 86.4228 174.41 86.0252C174.768 85.6673 175.072 85.2961 175.377 84.8455C175.642 84.4345 175.855 84.0369 176.093 83.5067C176.265 83.0693 176.411 82.6054 176.517 82.1149C176.623 81.598 176.676 81.1076 176.676 80.6039C176.676 78.5891 175.855 76.6141 174.436 75.1958C172.647 73.3798 169.983 72.5713 167.491 73.0882L167.464 73.0617ZM132.352 68.2899C133.505 68.9792 134.843 69.3371 136.195 69.3371C138.926 69.3371 141.471 67.8658 142.85 65.4799C143.87 63.7037 144.135 61.6359 143.605 59.6609C143.075 57.6859 141.802 56.029 140.039 55.0216C136.381 52.9141 131.676 54.1601 129.555 57.8185C128.534 59.5946 128.256 61.6624 128.786 63.6374C129.316 65.6124 130.589 67.2693 132.352 68.2899ZM112.151 78.3505C111.872 77.6877 111.581 77.1443 111.303 76.7599C110.945 76.2032 110.52 75.673 110.096 75.2753C106.584 71.7627 100.208 71.7627 96.7352 75.2355C96.1918 75.7525 95.7809 76.3225 95.5158 76.7201C95.1711 77.2371 94.8663 77.807 94.641 78.3505C94.4289 78.8542 94.2698 79.3976 94.0975 80.1267C93.9782 80.7364 93.9119 81.3727 93.9119 81.9824C93.9119 82.5921 93.9782 83.1886 94.1107 83.9176C94.2433 84.4876 94.4156 85.0708 94.641 85.6143C94.853 86.118 95.1314 86.6349 95.529 87.2579C95.8869 87.7881 96.2713 88.252 96.6955 88.6894C98.4584 90.4524 100.911 91.4597 103.403 91.4597C105.894 91.4597 108.333 90.4524 110.096 88.6894C110.573 88.2123 110.984 87.7218 111.263 87.2579C111.607 86.7542 111.899 86.2107 112.151 85.6143C112.389 85.0443 112.588 84.4213 112.708 83.8116C112.827 83.1621 112.893 82.5656 112.893 81.9691C112.893 81.3727 112.827 80.7364 112.708 80.1399C112.602 79.5434 112.416 78.9337 112.151 78.3373V78.3505ZM69.9601 90.9163C69.3768 91.0356 68.7804 91.2079 68.1839 91.4597C67.5742 91.7116 67.0175 92.0032 66.527 92.3346C65.9836 92.7057 65.5064 93.1033 65.1087 93.501C63.3458 95.2639 62.3384 97.7161 62.3384 100.208C62.3384 102.7 63.3458 105.179 65.1087 106.915C65.5196 107.326 66.0101 107.724 66.5535 108.095C67.0307 108.413 67.5742 108.691 68.1839 108.956C68.7671 109.195 69.3768 109.394 69.8805 109.487C70.4638 109.619 71.0868 109.699 71.8158 109.699C74.2945 109.699 76.7334 108.691 78.5228 106.928C80.2857 105.165 81.2931 102.713 81.2931 100.221C81.2931 97.7294 80.2857 95.3037 78.5228 93.5143C76.296 91.2874 73.022 90.2933 69.9601 90.9295V90.9163ZM80.5641 133.054C80.2857 132.391 79.9941 131.848 79.7158 131.463C79.3844 130.933 78.9735 130.416 78.5228 129.979C76.296 127.752 73.022 126.758 69.9733 127.381C69.3238 127.5 68.7274 127.672 68.1706 127.911C67.6139 128.15 67.044 128.455 66.527 128.799C65.9173 129.21 65.4534 129.594 65.0955 129.979C64.6713 130.403 64.2737 130.88 63.9025 131.424C63.5579 131.941 63.2663 132.497 63.0277 133.054C62.8024 133.611 62.63 134.194 62.524 134.751C62.3782 135.334 62.3119 135.957 62.3119 136.686C62.3119 137.415 62.3782 138.011 62.4975 138.528C62.63 139.191 62.8024 139.788 63.0277 140.318C63.2398 140.835 63.5181 141.352 63.9158 141.961C64.2604 142.465 64.6448 142.916 65.0955 143.393C65.5329 143.83 66.0498 144.241 66.474 144.52C66.9512 144.864 67.4946 145.156 68.1706 145.434C68.7804 145.686 69.3636 145.872 69.9468 145.978C70.5565 146.097 71.1928 146.163 71.8025 146.163C74.2812 146.163 76.7334 145.143 78.5493 143.34C79.0265 142.836 79.3977 142.372 79.6628 141.961C80.0074 141.458 80.299 140.914 80.5508 140.305C80.7894 139.735 80.975 139.112 81.1076 138.502C81.2269 137.852 81.2931 137.243 81.2931 136.673C81.2931 136.103 81.2269 135.44 81.1076 134.83C80.9883 134.234 80.8027 133.637 80.5641 133.041V133.054ZM108.665 147.038C108.174 146.707 107.644 146.428 107.021 146.163C106.425 145.925 105.841 145.739 105.285 145.633C104.026 145.368 102.753 145.368 101.534 145.633C100.95 145.752 100.367 145.938 99.7972 146.177C99.1609 146.428 98.6042 146.733 98.1933 147.038C97.6631 147.369 97.1461 147.78 96.6955 148.231C94.9193 150.007 93.8987 152.446 93.8987 154.938C93.8987 155.535 93.9649 156.158 94.0975 156.86C94.2433 157.523 94.4156 158.066 94.6277 158.583C94.8398 159.087 95.1181 159.604 95.5158 160.227C95.8737 160.757 96.2581 161.221 96.6822 161.658C98.4451 163.421 100.897 164.429 103.389 164.429C105.881 164.429 108.32 163.421 110.083 161.658C110.56 161.181 110.971 160.691 111.25 160.227C111.594 159.723 111.886 159.18 112.138 158.583C112.389 157.987 112.575 157.377 112.694 156.781C112.814 156.131 112.88 155.535 112.88 154.938C112.88 152.446 111.859 150.007 110.083 148.231C109.619 147.767 109.129 147.369 108.638 147.051L108.665 147.038ZM143.751 133.067C143.472 132.405 143.181 131.861 142.863 131.41C142.439 130.801 142.067 130.337 141.696 129.992C139.509 127.779 136.222 126.784 133.12 127.394C132.497 127.513 131.927 127.686 131.344 127.924C130.827 128.136 130.297 128.428 129.661 128.839C129.303 129.091 128.773 129.502 128.335 129.939C127.871 130.377 127.447 130.893 127.142 131.371C126.811 131.848 126.506 132.391 126.228 133.067C125.976 133.677 125.79 134.26 125.684 134.843C125.565 135.453 125.499 136.089 125.499 136.699C125.499 137.309 125.565 137.892 125.684 138.542C125.804 139.138 125.989 139.748 126.228 140.331C126.48 140.941 126.771 141.484 127.076 141.922C127.394 142.425 127.792 142.916 128.282 143.406C128.706 143.83 129.21 144.241 129.687 144.559C130.204 144.904 130.748 145.196 131.371 145.461C131.994 145.713 132.564 145.885 133.134 146.004C133.783 146.123 134.38 146.19 134.976 146.19C137.481 146.19 139.92 145.182 141.696 143.406C142.12 142.982 142.505 142.518 142.863 141.988C143.207 141.484 143.499 140.941 143.751 140.344C143.989 139.774 144.188 139.151 144.308 138.528C144.427 137.879 144.493 137.269 144.493 136.699C144.493 136.129 144.427 135.466 144.308 134.87C144.202 134.287 144.016 133.677 143.764 133.067H143.751ZM133.12 90.9163C132.564 91.0223 131.994 91.2079 131.344 91.4597C130.774 91.6983 130.244 91.9767 129.647 92.3611C129.17 92.7057 128.693 93.1033 128.282 93.501C126.506 95.2772 125.485 97.7161 125.485 100.208C125.485 102.7 126.506 105.139 128.282 106.915C128.68 107.313 129.144 107.71 129.754 108.135C130.27 108.466 130.787 108.731 131.371 108.983C131.98 109.235 132.564 109.407 133.134 109.526C133.783 109.646 134.38 109.712 134.976 109.712C137.481 109.712 139.92 108.705 141.683 106.942C143.459 105.179 144.48 102.727 144.48 100.221C144.48 97.7161 143.459 95.2904 141.683 93.5143C139.483 91.3007 136.195 90.3198 133.12 90.9295V90.9163Z" fill="#FF3B31"/>
</svg>