<svg width="204" height="234" viewBox="0 0 204 234" fill="none" xmlns="http://www.w3.org/2000/svg">
<path d="M97.9717 9.51908C96.9805 8.55397 96.4066 7.18455 96.4066 5.76297C96.4066 4.34139 96.9935 2.97199 97.9978 1.99384C98.8977 1.09394 100.254 0.572266 101.715 0.572266C103.175 0.572266 104.545 1.10697 105.471 2.01991C106.462 2.98502 107.036 4.35443 107.036 5.76297C107.036 7.1715 106.449 8.56703 105.445 9.54519C104.519 10.5103 103.149 11.0711 101.728 11.0711C100.306 11.0711 98.9368 10.4972 97.9586 9.51908H97.9717ZM37.4567 48.2017C38.3827 48.2017 39.2826 47.9539 40.1303 47.4844C42.6474 46.0237 43.5212 42.7632 42.0605 40.22C40.5868 37.7029 37.3263 36.8421 34.8222 38.2898C33.5832 38.994 32.6964 40.1548 32.3312 41.5373C31.966 42.9197 32.1616 44.3413 32.8659 45.5411C33.8049 47.1844 35.5656 48.2148 37.4567 48.2148V48.2017ZM69.5922 29.6429C70.5443 29.6429 71.4442 29.4082 72.2789 28.9256C74.796 27.4519 75.6568 24.1914 74.2091 21.6873C73.5048 20.4483 72.3441 19.5615 70.9617 19.1963C69.5792 18.8311 68.1576 19.0267 66.9578 19.731C65.7188 20.4353 64.8319 21.583 64.4667 22.9524C64.1015 24.3218 64.2841 25.7564 65.0014 26.9824C65.9405 28.6126 67.7011 29.6299 69.5922 29.6299V29.6429ZM10.1989 59.4048C10.0684 59.0657 9.8989 58.7527 9.71631 58.4919C9.48155 58.1528 9.23375 57.8659 9.05116 57.7094C8.85553 57.5137 8.58165 57.2399 8.16431 56.979C7.89042 56.8095 7.6035 56.653 7.1992 56.4965C6.89923 56.3921 6.61231 56.3008 6.33842 56.2487C4.59079 55.9226 2.80404 56.4573 1.56504 57.6963C1.35637 57.905 1.16074 58.1397 0.83469 58.5832C0.678186 58.831 0.560807 59.0788 0.391261 59.4439C0.286925 59.7048 0.208673 59.9787 0.0912944 60.4352C0.0391263 60.7612 0 61.1133 0 61.4394C0 62.8479 0.560807 64.2173 1.552 65.1955C2.54319 66.1736 3.91261 66.7475 5.3081 66.7475C5.63415 66.7475 5.97325 66.7214 6.31234 66.6562C6.62535 66.604 6.92531 66.4997 7.30353 66.3693C7.59046 66.2649 7.87738 66.0954 8.17735 65.9128C8.58165 65.665 8.85554 65.3911 9.02508 65.2216C10.0424 64.2434 10.6162 62.861 10.6162 61.4394C10.6162 61.022 10.564 60.6308 10.5119 60.4352C10.4467 60.0439 10.3423 59.7048 10.1989 59.3918V59.4048ZM5.32115 93.2619C2.38669 93.2619 0.0130423 95.6486 0.0130423 98.57C0.0130423 101.491 2.39973 103.878 5.32115 103.878C8.24256 103.878 10.6292 101.491 10.6292 98.57C10.6292 95.6486 8.24256 93.2619 5.32115 93.2619ZM5.32115 130.366C2.38669 130.366 0.0130423 132.753 0.0130423 135.675C0.0130423 138.596 2.39973 140.983 5.32115 140.983C8.24256 140.983 10.6292 138.596 10.6292 135.675C10.6292 132.753 8.24256 130.366 5.32115 130.366ZM10.1989 170.732C10.0554 170.392 9.88585 170.079 9.71631 169.832C9.48155 169.493 9.23375 169.206 9.05116 169.049C8.85553 168.854 8.58165 168.58 8.16431 168.319C7.87738 168.149 7.59046 167.993 7.39483 167.914C7.05574 167.758 6.69056 167.654 6.36451 167.588C4.656 167.223 2.80404 167.784 1.552 169.036C1.34333 169.245 1.1477 169.48 0.83469 169.923C0.691228 170.158 0.573849 170.392 0.365177 170.836C0.273883 171.097 0.195631 171.345 0.0912944 171.788C0.0391263 172.114 0 172.466 0 172.779C0 173.092 0.0260845 173.418 0.130421 173.979C0.208673 174.253 0.286925 174.54 0.430387 174.866C0.57385 175.179 0.717312 175.453 0.912942 175.753C1.12161 176.04 1.31724 176.3 1.552 176.535C2.54319 177.526 3.91261 178.087 5.3081 178.087C5.63415 178.087 5.97325 178.061 6.31234 177.996C6.62535 177.944 6.92531 177.839 7.31658 177.696C7.59046 177.592 7.87738 177.422 8.29473 177.161C8.58165 176.953 8.81641 176.757 9.02508 176.548C10.0293 175.57 10.6162 174.188 10.6162 172.766C10.6162 172.362 10.564 171.958 10.5119 171.775C10.4467 171.397 10.3423 171.045 10.1989 170.719V170.732ZM40.1303 186.747H40.1042C37.5741 185.286 34.3266 186.16 32.8398 188.69C31.4052 191.208 32.279 194.481 34.8483 195.981C35.6699 196.424 36.5698 196.646 37.4567 196.646C39.3347 196.646 41.1085 195.629 42.0736 193.985C43.5212 191.468 42.6474 188.208 40.1434 186.734L40.1303 186.747ZM72.2528 205.306C71.0269 204.602 69.5922 204.406 68.2359 204.771C66.8534 205.136 65.7188 206.023 65.0145 207.236C64.2972 208.462 64.1015 209.897 64.4667 211.279C64.8319 212.649 65.7188 213.796 66.9317 214.488C67.7403 214.97 68.6663 215.218 69.6053 215.218C71.5094 215.218 73.231 214.227 74.2091 212.557C75.6698 210.027 74.796 206.767 72.2659 205.306H72.2528ZM104.675 224.047L104.597 223.995C104.206 223.76 103.958 223.63 103.88 223.617C103.541 223.447 103.162 223.33 102.797 223.265C101.076 222.913 99.2498 223.46 97.9978 224.686C96.9805 225.665 96.4066 227.047 96.4066 228.456C96.4066 229.864 96.9805 231.22 97.9717 232.212C98.9498 233.203 100.332 233.764 101.741 233.764C102.067 233.764 102.419 233.738 102.732 233.672C103.071 233.607 103.41 233.49 103.671 233.399C104.023 233.268 104.336 233.085 104.793 232.799C105.027 232.616 105.262 232.433 105.471 232.212C106.462 231.22 107.036 229.838 107.036 228.456C107.036 227.073 106.462 225.678 105.458 224.699C105.21 224.465 104.936 224.217 104.662 224.034L104.675 224.047ZM135.285 204.784C133.915 204.419 132.481 204.589 131.216 205.306C128.686 206.767 127.812 210.014 129.286 212.57C130.251 214.201 132.011 215.218 133.876 215.218C134.815 215.218 135.728 214.97 136.511 214.501C137.75 213.796 138.637 212.649 139.002 211.266C139.367 209.897 139.171 208.462 138.467 207.249C137.763 206.023 136.641 205.149 135.272 204.771L135.285 204.784ZM163.364 186.734H163.338C162.112 187.464 161.252 188.625 160.886 189.995C160.521 191.364 160.717 192.786 161.421 193.972C162.347 195.629 164.121 196.659 166.025 196.659C166.925 196.659 167.825 196.424 168.712 195.942C171.229 194.455 172.09 191.194 170.616 188.677C169.155 186.16 165.908 185.286 163.364 186.734ZM203.351 171.644L203.416 171.618L202.843 170.092L202.751 170.119C202.699 170.027 202.647 169.936 202.582 169.845C202.399 169.571 202.151 169.284 201.917 169.036C200.952 168.071 199.582 167.523 198.134 167.523C196.713 167.523 195.356 168.084 194.417 169.036C194.131 169.323 193.909 169.584 193.713 169.897C193.531 170.184 193.361 170.484 193.296 170.679C193.139 171.018 193.022 171.384 192.996 171.631C192.905 172.01 192.852 172.362 192.852 172.779C192.852 174.175 193.413 175.531 194.404 176.522C195.37 177.526 196.752 178.087 198.174 178.087C199.595 178.087 200.978 177.513 201.93 176.535C202.921 175.544 203.482 174.175 203.482 172.779C203.482 172.466 203.456 172.114 203.39 171.762L203.364 171.644H203.351ZM198.174 130.366C195.239 130.366 192.865 132.753 192.865 135.675C192.865 138.596 195.252 140.983 198.174 140.983C201.095 140.983 203.469 138.596 203.469 135.675C203.469 132.753 201.095 130.366 198.174 130.366ZM198.174 93.2619C195.239 93.2619 192.865 95.6486 192.865 98.57C192.865 101.491 195.252 103.878 198.174 103.878C201.095 103.878 203.469 101.491 203.469 98.57C203.469 95.6486 201.095 93.2619 198.174 93.2619ZM193.27 63.5131C193.387 63.8 193.544 64.0739 193.739 64.3999C193.909 64.6608 194.131 64.9346 194.391 65.1824C195.356 66.1867 196.739 66.7605 198.161 66.7605C199.582 66.7605 200.965 66.1867 201.917 65.2085C202.151 64.9738 202.399 64.6869 202.634 64.3217C202.817 64.0217 202.986 63.7087 203.077 63.4479C203.195 63.1479 203.312 62.8218 203.377 62.4175C203.43 62.0915 203.456 61.7785 203.456 61.4524C203.456 60.0308 202.882 58.6614 201.904 57.7094C200.938 56.7443 199.569 56.1965 198.121 56.1965C196.7 56.1965 195.343 56.7573 194.404 57.7094C194.117 57.9963 193.896 58.2571 193.687 58.5832C193.505 58.8701 193.348 59.1701 193.283 59.3396C193.126 59.6787 193.009 60.0439 192.97 60.3047C192.878 60.6829 192.826 61.0481 192.826 61.4524C192.826 61.8567 192.865 62.235 192.931 62.4697C192.996 62.861 193.113 63.2 193.257 63.5131H193.27ZM131.203 28.9256L131.281 28.9647C132.116 29.4082 132.99 29.6429 133.889 29.6429C135.794 29.6429 137.541 28.6256 138.467 27.0084C139.184 25.7825 139.38 24.3348 139.015 22.9654C138.65 21.5829 137.763 20.4483 136.55 19.7571C135.337 19.0398 133.915 18.8441 132.546 19.1963C131.164 19.5615 130.003 20.4353 129.286 21.6873C127.825 24.2044 128.686 27.4519 131.203 28.9387V28.9256ZM163.364 47.4844C164.173 47.9539 165.086 48.2148 166.025 48.2148C167.903 48.2148 169.664 47.1975 170.629 45.5542C172.076 43.0501 171.203 39.7896 168.673 38.2898C166.142 36.8421 162.895 37.716 161.434 40.2331C160.717 41.459 160.521 42.8936 160.886 44.2761C161.252 45.6455 162.138 46.7801 163.364 47.4974V47.4844ZM101.741 50.158C103.723 50.158 105.666 49.3494 107.075 47.9539C108.484 46.5454 109.292 44.6021 109.292 42.6197C109.292 40.6374 108.484 38.6941 107.075 37.2856C106.736 36.9465 106.345 36.6204 105.862 36.2944C105.458 36.0466 105.014 35.7988 104.662 35.6684C104.128 35.4336 103.606 35.3032 103.215 35.2249C102.236 35.0163 101.245 35.0163 100.228 35.2249C99.8367 35.3032 99.3281 35.4336 98.8846 35.6292C98.4412 35.7988 97.9978 36.0466 97.5152 36.3465C97.124 36.6204 96.7327 36.9334 96.3806 37.2986C94.9851 38.7202 94.1765 40.6634 94.1765 42.6197C94.1765 44.576 94.9851 46.5324 96.4066 47.967C97.8282 49.3625 99.7715 50.1711 101.741 50.1711V50.158ZM69.4879 68.7951C70.8182 68.7951 72.1224 68.443 73.244 67.7648C74.9916 66.7605 76.2437 65.1172 76.7654 63.174C77.287 61.2307 77.0132 59.2092 76.0089 57.4746C75.0047 55.714 73.3744 54.4619 71.4181 53.9533C69.4879 53.4316 67.4533 53.6924 65.7188 54.7097C63.9711 55.7009 62.7191 57.3181 62.1974 59.2614C61.6627 61.2177 61.9235 63.2653 62.9408 65.0259C64.2711 67.3605 66.7882 68.8082 69.4879 68.8082V68.7951ZM31.8617 74.5205C30.4531 75.9291 29.6445 77.8723 29.6445 79.8547C29.6445 81.8371 30.4531 83.7804 31.8617 85.1889C33.2702 86.5975 35.2135 87.4061 37.1959 87.4061C39.1782 87.4061 41.1215 86.5975 42.53 85.1889C43.9386 83.7804 44.7472 81.8371 44.7472 79.8547C44.7472 77.8723 43.9386 75.9291 42.53 74.5205C39.6869 71.6774 34.7048 71.6774 31.8617 74.5205ZM37.1959 109.564C33.0354 109.564 29.6445 112.955 29.6445 117.116C29.6445 121.276 33.0354 124.667 37.1959 124.667C41.3563 124.667 44.7472 121.276 44.7472 117.116C44.7472 112.955 41.3563 109.564 37.1959 109.564ZM41.4215 148.117L41.3693 148.078C40.9389 147.804 40.4955 147.569 40.1434 147.438C39.6347 147.217 39.1261 147.06 38.6957 146.982C36.2307 146.486 33.6223 147.282 31.8878 149.03C30.4792 150.425 29.6576 152.368 29.6576 154.377C29.6576 156.385 30.4662 158.303 31.8747 159.711C33.2832 161.12 35.2265 161.928 37.2089 161.928C39.1913 161.928 41.1345 161.12 42.5431 159.711C43.9516 158.303 44.7602 156.359 44.7602 154.377C44.7602 152.394 43.9647 150.438 42.5953 149.095C42.2692 148.743 41.8779 148.417 41.4345 148.104L41.4215 148.117ZM73.231 166.48C71.4833 165.463 69.4488 165.202 67.4925 165.723C65.5492 166.245 63.932 167.484 62.9278 169.232C61.9235 170.979 61.6496 173.014 62.1713 174.957C62.693 176.9 63.945 178.531 65.6927 179.535C66.8404 180.187 68.1315 180.539 69.4488 180.539C72.1615 180.539 74.6656 179.092 75.9828 176.77C77.0001 175.022 77.261 172.975 76.7393 171.032C76.2176 169.088 74.9656 167.471 73.2179 166.467L73.231 166.48ZM105.914 185.365C105.497 185.078 105.04 184.83 104.662 184.687C104.128 184.452 103.606 184.321 103.215 184.243C102.236 184.034 101.245 184.034 100.228 184.243C99.8367 184.321 99.3281 184.452 98.8846 184.647C98.4282 184.83 97.9586 185.078 97.5935 185.326C97.1761 185.586 96.7588 185.926 96.3153 186.356C96.0154 186.682 95.7024 187.034 95.4285 187.451C95.1416 187.895 94.9199 188.325 94.7764 188.677C94.5677 189.16 94.4112 189.656 94.2808 190.282C94.2156 190.738 94.1504 191.168 94.1504 191.612C94.1504 193.568 94.959 195.524 96.3806 196.959C97.8021 198.355 99.7454 199.163 101.715 199.163C103.684 199.163 105.64 198.355 107.049 196.959C108.457 195.551 109.266 193.607 109.266 191.625C109.266 189.643 108.457 187.699 107.049 186.291C106.697 185.939 106.293 185.613 105.888 185.352L105.914 185.365ZM135.95 165.723C133.994 165.202 131.972 165.476 130.238 166.48C128.49 167.471 127.238 169.101 126.703 171.045C126.182 173.001 126.442 175.035 127.447 176.757C128.777 179.092 131.281 180.539 133.994 180.539C135.311 180.539 136.576 180.2 137.776 179.535C141.349 177.461 142.588 172.831 140.541 169.219C139.537 167.484 137.906 166.232 135.95 165.71V165.723ZM173.25 151.534L173.211 151.442C173.015 150.999 172.781 150.556 172.52 150.164C172.311 149.851 171.972 149.395 171.594 149.056C171.203 148.664 170.824 148.351 170.459 148.117C170.042 147.83 169.572 147.582 169.194 147.438C168.686 147.217 168.164 147.06 167.747 146.995C166.768 146.799 165.751 146.786 164.851 146.982C164.343 147.06 163.821 147.217 163.404 147.412C162.947 147.582 162.517 147.817 162.021 148.13C161.617 148.404 161.252 148.717 160.965 149.004C160.573 149.369 160.221 149.799 159.987 150.164C159.687 150.595 159.439 151.064 159.282 151.455C159.047 151.99 158.917 152.499 158.839 152.89C158.734 153.373 158.682 153.881 158.682 154.39C158.682 154.899 158.734 155.407 158.839 155.877C158.956 156.424 159.087 156.881 159.243 157.233C159.426 157.69 159.674 158.172 159.895 158.459C160.143 158.889 160.469 159.294 160.899 159.724C161.252 160.076 161.617 160.376 162.06 160.676C162.464 160.937 162.856 161.146 163.377 161.38C163.808 161.55 164.264 161.693 164.747 161.785C165.255 161.889 165.738 161.941 166.234 161.941C168.216 161.941 170.159 161.133 171.568 159.724C172.976 158.316 173.772 156.372 173.772 154.39C173.772 153.881 173.72 153.373 173.615 152.89C173.524 152.434 173.381 151.977 173.211 151.547L173.25 151.534ZM166.273 109.564C162.112 109.564 158.721 112.955 158.721 117.116C158.721 121.276 162.112 124.667 166.273 124.667C170.433 124.667 173.824 121.276 173.824 117.116C173.824 112.955 170.433 109.564 166.273 109.564ZM164.773 72.4599L164.942 73.3207L164.76 72.473C164.303 72.5643 163.847 72.7077 163.325 72.9164C162.895 73.112 162.504 73.3207 162.06 73.6076C161.669 73.8815 161.291 74.1814 160.939 74.5336C160.508 74.964 160.195 75.3552 160.026 75.6552C159.7 76.1117 159.465 76.5682 159.308 76.9594C159.113 77.4028 158.982 77.8593 158.878 78.381C158.774 78.8505 158.721 79.3722 158.721 79.8678C158.721 80.3634 158.774 80.8459 158.878 81.3676C158.956 81.7197 159.074 82.2544 159.282 82.7109C159.491 83.2456 159.778 83.7152 159.96 83.9891C160.208 84.3934 160.534 84.7846 160.939 85.1889C161.317 85.5672 161.695 85.8802 162.178 86.2062C162.582 86.441 162.999 86.6757 163.325 86.8061C163.86 87.0539 164.382 87.1713 164.786 87.2626C165.295 87.367 165.777 87.4191 166.273 87.4191C166.768 87.4191 167.264 87.367 167.786 87.2626C168.177 87.1844 168.686 87.0539 169.129 86.8583C169.572 86.6888 170.003 86.4409 170.433 86.1801C170.837 85.9193 171.229 85.6063 171.607 85.215C171.959 84.8629 172.259 84.4977 172.559 84.0542C172.82 83.6499 173.029 83.2587 173.263 82.737C173.433 82.3066 173.576 81.8501 173.681 81.3676C173.785 80.8589 173.837 80.3764 173.837 79.8808C173.837 77.8984 173.029 75.9551 171.633 74.5597C169.872 72.7729 167.251 71.9773 164.799 72.486L164.773 72.4599ZM130.225 67.7648C131.359 68.443 132.677 68.7951 134.007 68.7951C136.693 68.7951 139.198 67.3474 140.554 64.9999C141.558 63.2522 141.819 61.2177 141.297 59.2744C140.776 57.3311 139.524 55.7009 137.789 54.7097C134.189 52.636 129.559 53.862 127.473 57.4616C126.469 59.2092 126.195 61.2437 126.716 63.187C127.238 65.1303 128.49 66.7605 130.225 67.7648ZM110.349 77.6637C110.075 77.0116 109.788 76.4769 109.514 76.0986C109.162 75.5509 108.744 75.0292 108.327 74.6379C104.871 71.1818 98.5977 71.1818 95.1807 74.5988C94.646 75.1074 94.2417 75.6683 93.9808 76.0595C93.6417 76.5682 93.3418 77.1289 93.1201 77.6637C92.9114 78.1593 92.7549 78.694 92.5853 79.4113C92.4679 80.0112 92.4027 80.6373 92.4027 81.2372C92.4027 81.8371 92.468 82.424 92.5984 83.1413C92.7288 83.7021 92.8983 84.276 93.1201 84.8107C93.3287 85.3063 93.6026 85.8149 93.9939 86.4279C94.346 86.9496 94.7242 87.4061 95.1416 87.8365C96.8762 89.5711 99.2889 90.5622 101.741 90.5622C104.193 90.5622 106.592 89.5711 108.327 87.8365C108.797 87.367 109.201 86.8844 109.475 86.4279C109.814 85.9323 110.101 85.3976 110.349 84.8107C110.583 84.2499 110.779 83.6369 110.896 83.037C111.014 82.3979 111.079 81.811 111.079 81.2241C111.079 80.6373 111.014 80.0112 110.896 79.4243C110.792 78.8374 110.609 78.2375 110.349 77.6506V77.6637ZM68.8358 90.0275C68.262 90.1449 67.6751 90.3144 67.0882 90.5622C66.4882 90.81 65.9405 91.097 65.4579 91.423C64.9232 91.7882 64.4537 92.1794 64.0624 92.5707C62.3278 94.3053 61.3366 96.7181 61.3366 99.17C61.3366 101.622 62.3278 104.061 64.0624 105.769C64.4667 106.174 64.9493 106.565 65.484 106.93C65.9535 107.243 66.4882 107.517 67.0882 107.778C67.662 108.012 68.262 108.208 68.7575 108.299C69.3314 108.43 69.9444 108.508 70.6617 108.508C73.1005 108.508 75.5003 107.517 77.2609 105.782C78.9955 104.048 79.9867 101.635 79.9867 99.183C79.9867 96.7311 78.9955 94.3444 77.2609 92.5837C75.0699 90.3927 71.8485 89.4146 68.8358 90.0406V90.0275ZM79.2694 131.488C78.9955 130.836 78.7086 130.301 78.4347 129.923C78.1087 129.401 77.7044 128.893 77.2609 128.462C75.0699 126.271 71.8485 125.293 68.8488 125.906C68.2098 126.024 67.6229 126.193 67.0751 126.428C66.5274 126.663 65.9666 126.963 65.4579 127.302C64.858 127.706 64.4015 128.084 64.0494 128.462C63.632 128.88 63.2408 129.349 62.8756 129.884C62.5365 130.393 62.2496 130.94 62.0148 131.488C61.7931 132.036 61.6236 132.61 61.5192 133.158C61.3758 133.731 61.3106 134.344 61.3106 135.062C61.3106 135.779 61.3758 136.366 61.4931 136.874C61.6236 137.527 61.7931 138.113 62.0148 138.635C62.2235 139.144 62.4974 139.652 62.8886 140.252C63.2277 140.748 63.606 141.191 64.0494 141.661C64.4798 142.091 64.9884 142.496 65.4057 142.769C65.8753 143.109 66.41 143.395 67.0751 143.669C67.6751 143.917 68.2489 144.1 68.8228 144.204C69.4227 144.321 70.0487 144.387 70.6486 144.387C73.0875 144.387 75.5003 143.382 77.287 141.609C77.7565 141.113 78.1217 140.657 78.3826 140.252C78.7217 139.757 79.0086 139.222 79.2564 138.622C79.4911 138.061 79.6737 137.448 79.8042 136.848C79.9215 136.209 79.9867 135.609 79.9867 135.049C79.9867 134.488 79.9215 133.836 79.8042 133.236C79.6868 132.649 79.5042 132.062 79.2694 131.475V131.488ZM106.919 145.247C106.436 144.921 105.914 144.648 105.301 144.387C104.714 144.152 104.141 143.969 103.593 143.865C102.354 143.604 101.102 143.604 99.9019 143.865C99.3281 143.982 98.7542 144.165 98.1934 144.4C97.5674 144.648 97.0196 144.947 96.6153 145.247C96.0936 145.574 95.585 145.978 95.1416 146.421C93.3939 148.169 92.3897 150.569 92.3897 153.02C92.3897 153.607 92.4549 154.22 92.5853 154.912C92.7288 155.564 92.8983 156.098 93.107 156.607C93.3157 157.103 93.5896 157.611 93.9808 158.224C94.333 158.746 94.7112 159.202 95.1285 159.633C96.8631 161.367 99.2759 162.359 101.728 162.359C104.18 162.359 106.579 161.367 108.314 159.633C108.784 159.163 109.188 158.681 109.462 158.224C109.801 157.729 110.088 157.194 110.336 156.607C110.583 156.02 110.766 155.42 110.883 154.833C111.001 154.194 111.066 153.607 111.066 153.02C111.066 150.569 110.062 148.169 108.314 146.421C107.858 145.965 107.375 145.574 106.892 145.26L106.919 145.247ZM141.441 131.501C141.167 130.849 140.88 130.314 140.567 129.871C140.15 129.271 139.784 128.815 139.419 128.475C137.267 126.297 134.033 125.319 130.981 125.919C130.368 126.037 129.807 126.206 129.233 126.441C128.725 126.649 128.203 126.936 127.577 127.341C127.225 127.589 126.703 127.993 126.273 128.423C125.816 128.854 125.399 129.362 125.099 129.832C124.773 130.301 124.473 130.836 124.199 131.501C123.951 132.101 123.769 132.675 123.664 133.249C123.547 133.849 123.482 134.475 123.482 135.075C123.482 135.675 123.547 136.248 123.664 136.887C123.782 137.474 123.964 138.074 124.199 138.648C124.447 139.248 124.734 139.783 125.034 140.213C125.347 140.709 125.738 141.191 126.221 141.674C126.638 142.091 127.134 142.496 127.603 142.809C128.112 143.148 128.647 143.435 129.26 143.695C129.872 143.943 130.433 144.113 130.994 144.23C131.633 144.348 132.22 144.413 132.807 144.413C135.272 144.413 137.672 143.422 139.419 141.674C139.837 141.257 140.215 140.8 140.567 140.278C140.906 139.783 141.193 139.248 141.441 138.661C141.676 138.1 141.871 137.487 141.989 136.874C142.106 136.235 142.171 135.635 142.171 135.075C142.171 134.514 142.106 133.862 141.989 133.275C141.884 132.701 141.702 132.101 141.454 131.501H141.441ZM130.981 90.0275C130.433 90.1319 129.872 90.3144 129.233 90.5622C128.673 90.797 128.151 91.0709 127.564 91.4491C127.095 91.7882 126.625 92.1794 126.221 92.5707C124.473 94.3183 123.469 96.7181 123.469 99.17C123.469 101.622 124.473 104.022 126.221 105.769C126.612 106.161 127.068 106.552 127.668 106.969C128.177 107.295 128.686 107.556 129.26 107.804C129.859 108.052 130.433 108.221 130.994 108.339C131.633 108.456 132.22 108.521 132.807 108.521C135.272 108.521 137.672 107.53 139.406 105.795C141.154 104.061 142.158 101.648 142.158 99.183C142.158 96.7181 141.154 94.3314 139.406 92.5837C137.241 90.4057 134.007 89.4406 130.981 90.0406V90.0275Z" fill="#FF3B31"/>
</svg>
