<svg width="167" height="234" viewBox="0 0 167 234" fill="none" xmlns="http://www.w3.org/2000/svg">
<path d="M132.663 13.4389L111.855 0.572144L0.407254 67.7692H0.381805L0 201.323L26.2679 216.939L53.9867 233.764L165.625 166.274L165.702 166.312L166.083 32.7453L132.663 13.4516V13.4389ZM34.7693 204.874L35.1893 87.8519V87.1901L83.1181 58.3769L82.9526 116.881L48.3487 96.9005L48.1578 163.69L75.9657 179.751L34.7693 204.861V204.874ZM130.958 146.242L82.9908 175.475L83.1563 117.416L117.76 137.397L117.951 70.6199L89.7996 54.3679L131.25 29.449L130.92 146.217L130.97 146.255L130.958 146.242Z" fill="#FF3B31"/>
</svg>
