<svg width="828" height="237" viewBox="0 0 828 237" fill="none" xmlns="http://www.w3.org/2000/svg">
<path d="M239.727 77.0253H266.605L305.357 122.115H307.167L306.262 77.0253H325.082V149.498H305.46L259.866 96.9574H258.158L258.663 149.498H239.739V77.0253H239.727Z" fill="#FFFFFF"/>
<path d="M342.791 77.0253H419.997V92.0293H362.723V105.119H403.182V119.308H362.723V134.403H421.407V149.498H342.791V77.0253Z" fill="#FFFFFF"/>
<path d="M428.247 147.984L461.463 112.66V111.858L428.946 78.4351V77.0253H454.013L475.756 101.187H476.765L497.796 77.0253H521.35V78.4351L488.535 112.854V113.759L522.256 147.984V149.498H497.189L474.139 124.327H473.13L451.788 149.498H428.234V147.984H428.247Z" fill="#FFFFFF"/>
<path d="M523.771 113.255C523.771 91.5124 544.001 75.2019 574.604 75.2019C605.207 75.2019 625.334 91.5124 625.334 113.255C625.334 134.998 605.104 151.309 574.604 151.309C544.105 151.309 523.771 134.908 523.771 113.255ZM603.487 113.255C603.487 99.8681 592.118 90.9045 574.604 90.9045C557.091 90.9045 545.618 99.8681 545.618 113.255C545.618 126.643 556.987 135.606 574.604 135.606C592.221 135.606 603.487 126.552 603.487 113.255Z" fill="#FFFFFF"/>
<path d="M638.008 77.0253H686.823C710.584 77.0253 721.449 85.0834 721.449 99.2726C721.449 111.147 712.485 118.7 695.98 120.912L721.746 147.79V149.498H698.399L674.341 121.611H657.836V149.498H638.008V77.0253ZM686.732 107.124C696.291 107.124 700.52 104.408 700.52 99.5702C700.52 94.7327 696.291 92.1199 686.732 92.1199H657.849V107.124H686.732Z" fill="#FFFFFF"/>
<path d="M727.786 147.687L760.097 77.0253H794.115L827.033 147.687V149.498H805.588L798.538 133.097H754.858L747.706 149.498H727.773V147.687H727.786ZM792.11 118.299L781.038 92.5338H772.682L761.403 118.299H792.11Z" fill="#FFFFFF"/>
<path d="M134.83 13.0769L113.682 0L0.413906 68.2945H0.388041L0 204.03L26.6969 219.9L54.8684 237L168.33 168.408L168.408 168.447L168.796 32.6986L134.83 13.0898V13.0769ZM35.3372 207.639L35.7641 88.7052V88.0326L84.4756 58.7488L84.3075 118.209L49.1384 97.9017L48.9444 165.782L77.2064 182.106L35.3372 207.626V207.639ZM133.097 148.049L84.3463 177.76L84.5144 118.752L119.683 139.059L119.877 71.1919L91.2663 54.6744L133.394 29.3485L133.058 148.023L133.11 148.062L133.097 148.049Z" fill="#FF3B31"/>
</svg>
