<svg width="201" height="234" viewBox="0 0 201 234" fill="none" xmlns="http://www.w3.org/2000/svg">
<path fill-rule="evenodd" clip-rule="evenodd" d="M61.093 71.5866C61.8436 64.6867 67.6894 59.3041 74.7969 59.3041C77.3046 59.3041 79.6365 59.9749 81.6649 61.1249L136.257 2.09233L4.75966 78.0233L61.077 71.6025L61.093 71.5866ZM115.893 150.52L115.174 151.255L0 84.7475L61.7957 77.7038C63.6804 83.0545 68.7915 86.9037 74.7969 86.9037C76.2025 86.9037 77.5441 86.6961 78.8219 86.3128L115.893 150.536V150.52ZM125.284 174.414C122.793 174.414 120.461 173.744 118.432 172.594L63.8082 231.658L195.306 155.743L138.972 162.164C138.206 169.048 132.36 174.398 125.269 174.398L125.284 174.414ZM112.092 156.558L76.8094 136.177L53.5062 233.75L113.912 168.409C112.379 166.189 111.485 163.506 111.485 160.599C111.485 159.193 111.692 157.819 112.092 156.542V156.558ZM200.081 149.019L84.8753 82.5114L84.1565 83.2302L121.228 147.438C122.505 147.038 123.863 146.831 125.269 146.831C131.29 146.831 136.401 150.68 138.286 156.063L200.065 149.019H200.081ZM86.185 65.3255L146.575 0L123.256 97.573L87.9579 77.1927C88.3572 75.899 88.5808 74.5254 88.5808 73.1039C88.5808 70.213 87.6864 67.5297 86.169 65.3255H86.185Z" fill="#FF3B31"/>
</svg>
