<svg width="1283" height="237" viewBox="0 0 1283 237" fill="none" xmlns="http://www.w3.org/2000/svg">
<path fill-rule="evenodd" clip-rule="evenodd" d="M61.8188 72.4371C62.5784 65.4552 68.4936 60.0087 75.6856 60.0087C78.223 60.0087 80.5826 60.6875 82.6352 61.8511L137.876 2.11719L4.81621 78.9503L61.8027 72.4533L61.8188 72.4371ZM117.27 152.309L116.543 153.052L0 85.7544L62.5299 78.6271C64.437 84.0413 69.6088 87.9363 75.6856 87.9363C77.1079 87.9363 78.4655 87.7262 79.7584 87.3383L117.27 152.325V152.309ZM126.773 176.487C124.252 176.487 121.892 175.808 119.84 174.644L64.5663 234.411L197.626 157.594L140.624 164.091C139.848 171.056 133.933 176.471 126.757 176.471L126.773 176.487ZM113.423 158.418L77.722 137.795L54.142 236.528L115.266 170.41C113.714 168.163 112.809 165.448 112.809 162.507C112.809 161.085 113.019 159.695 113.423 158.402V158.418ZM202.459 150.789L85.8837 83.4918L85.1564 84.2191L122.668 149.189C123.961 148.785 125.335 148.575 126.757 148.575C132.85 148.575 138.022 152.47 139.929 157.917L202.442 150.789H202.459ZM87.209 66.1017L148.317 0L124.72 98.7323L89.0029 78.1099C89.407 76.8008 89.6332 75.4109 89.6332 73.9725C89.6332 71.0472 88.7282 68.332 87.1928 66.1017H87.209Z" fill="#FF3B31"/>
<path d="M271.26 142.466V125.803H273.021C283.623 131.831 298.751 135.743 311.211 135.743C322.605 135.743 329.183 133.431 329.183 129.019C329.183 126.11 326.533 124.106 316.125 122.393L299.236 119.484C278.71 116.074 270.855 109.043 270.855 98.1018C270.855 83.9441 284.997 75.1036 308.852 75.1036C321.717 75.1036 335.745 78.1097 345.668 82.635V99.0068H343.907C333.692 93.6896 319.454 90.2633 308.173 90.2633C296.892 90.2633 290.993 92.2674 290.993 96.4856C290.993 99.6048 293.547 101.399 302.969 103.015L320.149 105.924C342.145 109.431 349.402 116.462 349.402 127.209C349.402 141.771 335.357 151.015 310.323 151.015C296.585 151.015 281.264 147.605 271.243 142.482L271.26 142.466Z" fill="#FFFFFF"/>
<path d="M386.041 92.4616H355.318V76.8978H436.418V92.4616H405.694V149.092L386.058 149.189V92.4455L386.041 92.4616Z" fill="#FFFFFF"/>
<path d="M448.296 76.8978H495.908C519.084 76.8978 529.687 84.9302 529.687 99.088C529.687 110.935 520.943 118.466 504.846 120.68L529.978 147.492V149.206H507.206L483.739 121.391H467.642V149.206H448.296V76.8978ZM495.812 106.926C505.137 106.926 509.258 104.211 509.258 99.395C509.258 94.5788 505.137 91.9606 495.812 91.9606H467.642V106.926H495.812Z" fill="#FFFFFF"/>
<path d="M535.877 147.396L567.392 76.8978H600.573L632.67 147.396V149.206H611.756L604.888 132.834H562.285L555.32 149.206H535.877V147.396ZM598.601 118.078L587.805 92.3647H579.659L568.669 118.078H598.617H598.601Z" fill="#FFFFFF"/>
<path d="M659.87 92.4616H629.146V76.8978H710.246V92.4616H679.522V149.092L659.886 149.189V92.4455L659.87 92.4616Z" fill="#FFFFFF"/>
<path d="M706.819 147.396L738.335 76.8978H771.515L803.612 147.396V149.206H782.699L775.83 132.834H733.228L726.262 149.206H706.819V147.396ZM769.543 118.078L758.747 92.3647H750.602L739.612 118.078H769.559H769.543Z" fill="#FFFFFF"/>
<path d="M806.958 113.553C806.958 92.2679 826.788 75.0879 859.774 75.0879C872.138 75.0879 884.615 77.8031 894.619 83.1203V99.7831H893.051C883.92 94.2558 872.138 90.8456 859.774 90.8456C839.556 90.8456 828.259 100.284 828.259 113.634C828.259 126.983 838.958 135.42 856.833 135.42C872.736 135.42 880.979 129.198 882.659 120.551H854.78V106.296H902.781C903.072 108.106 903.169 110.321 903.169 112.325C903.169 134.418 886.974 150.984 856.429 150.984C825.883 150.984 806.941 134.515 806.941 113.521L806.958 113.553Z" fill="#FFFFFF"/>
<path d="M915.064 76.8978H990.362V91.8636H934.507V104.922H973.974V119.08H934.507V134.143H991.752V149.206H915.081V76.8978H915.064Z" fill="#FFFFFF"/>
<path d="M1005.3 76.8978H1031.61L1058.61 114.555H1061.65L1088.16 76.8978H1114.27V149.206H1095.24L1095.72 98.49H1094.06L1067.36 134.741H1051.94L1024.74 98.49H1023.07L1023.56 149.206H1005.3V76.8978Z" fill="#FFFFFF"/>
<path d="M1156.29 147.396L1187.81 76.8978H1220.99L1253.09 147.396V149.206H1232.17L1225.31 132.834H1182.7L1175.74 149.206H1156.29V147.396ZM1219.03 118.078L1208.24 92.3647H1200.09L1189.1 118.078H1219.05H1219.03Z" fill="#FFFFFF"/>
<path d="M1262.82 76.8978H1282.26V149.206H1262.82V76.8978Z" fill="#FFFFFF"/>
</svg>
